<?xml version="1.0"?><svg width="64" height="64" xmlns="http://www.w3.org/2000/svg">
 <title>greyscale lotus flower</title>
 <metadata id="metadata2430">image/svg+xml</metadata>
 <g>
  <title>Layer 1</title>
  <g id="layer1">
   <path d="m28.577641,50.704811c-11.33835,-6.722153 -17.34854,-18.04932 -17.60153,-26.678112c5.233839,0.115042 17.809439,13.34433 18.37496,26.388832" id="path2387" stroke-miterlimit="4" stroke-width="0.608245" stroke="#000000" fill-rule="evenodd" fill="#7f7f7f"/>
   <path d="m31.956141,51.152241c-5.777021,-0.634941 -6.49296,-27.246721 0.072409,-33.793661c7.131672,6.130121 7.160652,33.364561 -0.072409,33.793661z" id="path2389" stroke-miterlimit="4" stroke-width="0.64698" stroke="#000000" fill-rule="evenodd" fill="#ffffff"/>
   <path d="m26.53105,49.224449c-6.35289,-7.876808 -7.536579,-16.579861 -5.55904,-26.486799c3.86429,2.36672 11.44594,11.90724 10.92952,28.415468" id="path2385" stroke-miterlimit="4" stroke-width="0.608245" stroke="#000000" fill-rule="evenodd" fill="#bfbfbf"/>
   <path d="m31.886101,51.055031c-7.705021,-10.829342 -17.29388,-19.24901 -27.510471,-19.617981c6.40385,12.026699 6.8417,18.414379 27.5969,19.65736" id="path2383" stroke-miterlimit="4" stroke-width="0.608245" stroke="#000000" fill-rule="evenodd" fill="#bfbfbf"/>
   <path d="m35.278011,50.687069c11.338348,-6.722149 17.348537,-18.04932 17.601528,-26.678108c-5.233841,0.11504 -17.809441,13.34433 -18.374958,26.388828" id="path3267" stroke-miterlimit="4" stroke-width="0.608245" stroke="#000000" fill-rule="evenodd" fill="#7f7f7f"/>
   <path d="m37.3246,49.206711c6.352879,-7.876801 7.536572,-16.579849 5.55904,-26.486801c-3.8643,2.36672 -11.44594,11.907242 -10.92952,28.41547" id="path3269" stroke-miterlimit="4" stroke-width="0.608245" stroke="#000000" fill-rule="evenodd" fill="#bfbfbf"/>
   <path d="m31.969549,51.037289c7.705011,-10.829338 17.293882,-19.249008 27.510469,-19.617979c-6.403839,12.026701 -6.841698,18.414381 -27.596899,19.657362" id="path3271" stroke-miterlimit="4" stroke-width="0.608245" stroke="#000000" fill-rule="evenodd" fill="#bfbfbf"/>
  </g>
 </g>
</svg>